<svg id="icn_pi_hover.svg" xmlns="http://www.w3.org/2000/svg" width="42" height="42" viewBox="0 0 42 42">
  <defs>
    <style>
      .cls-1 {
        fill: #fff;
      }

      .cls-1, .cls-2 {
        fill-rule: evenodd;
      }

      .cls-2 {
        fill: #0098a0;
      }

      .cls-3 {
        fill: #4eb7ba;
      }
    </style>
  </defs>
  <path id="fill" class="cls-1" d="M421,2745h30l-0.01,29.99-29.99-.26V2745Z" transform="translate(-415 -2739)"/>
  <path id="boarder" class="cls-2" d="M451,2744c0.914,0,1,.15,1,1v30a1.209,1.209,0,0,1-1,1H421c-0.914,0-1-.15-1-1v-29.95c0-.85.086-1.05,1-1.05h30Zm-3,2v28H424v-28h24Z" transform="translate(-415 -2739)"/>
  <g id="graphics">
    <g id="sidebard">
      <rect class="cls-3" x="7" y="21" width="2" height="14"/>
      <rect id="Rectangle_693_copy" data-name="Rectangle 693 copy" class="cls-3" x="33" y="21" width="2" height="14"/>
    </g>
    <rect id="headline" class="cls-3" x="22" y="10" width="9" height="4"/>
    <path id="PI" class="cls-2" d="M433,2761v-12h2v12h-2Zm-5,0h-2v-12h6v8h-4v4Zm2-6v-4h-2v4h2Z" transform="translate(-415 -2739)"/>
    <g id="words">
      <rect id="headline_copy" data-name="headline copy" class="cls-3" x="22" y="16" width="9" height="2"/>
      <rect id="headline_copy_2" data-name="headline copy 2" class="cls-3" x="22" y="20" width="9" height="2"/>
      <rect id="Rectangle_594_copy_4" data-name="Rectangle 594 copy 4" class="cls-3" x="11" y="24" width="20" height="2"/>
      <rect id="Rectangle_594_copy_6" data-name="Rectangle 594 copy 6" class="cls-3" x="11" y="28" width="20" height="2"/>
      <rect id="Rectangle_594_copy_8" data-name="Rectangle 594 copy 8" class="cls-3" x="11" y="32" width="20" height="2"/>
    </g>
  </g>
</svg>
